<?xml version="1.0" encoding="utf-8" standalone="no"?>
<!DOCTYPE svg PUBLIC "-//W3C//DTD SVG 1.1//EN"
  "http://www.w3.org/Graphics/SVG/1.1/DTD/svg11.dtd">
<svg xmlns:xlink="http://www.w3.org/1999/xlink" width="472.364595pt" height="351.99625pt" viewBox="0 0 472.364595 351.99625" xmlns="http://www.w3.org/2000/svg" version="1.1">
 <metadata>
  <rdf:RDF xmlns:dc="http://purl.org/dc/elements/1.1/" xmlns:cc="http://creativecommons.org/ns#" xmlns:rdf="http://www.w3.org/1999/02/22-rdf-syntax-ns#">
   <cc:Work>
    <dc:type rdf:resource="http://purl.org/dc/dcmitype/StillImage"/>
    <dc:date>2023-04-11T09:38:09.867393</dc:date>
    <dc:format>image/svg+xml</dc:format>
    <dc:creator>
     <cc:Agent>
      <dc:title>Matplotlib v3.7.1, https://matplotlib.org/</dc:title>
     </cc:Agent>
    </dc:creator>
   </cc:Work>
  </rdf:RDF>
 </metadata>
 <defs>
  <style type="text/css">*{stroke-linejoin: round; stroke-linecap: butt}</style>
 </defs>
 <g id="figure_1">
  <g id="patch_1">
   <path d="M 0 351.99625 
L 472.364595 351.99625 
L 472.364595 0 
L 0 0 
z
" style="fill: #ffffff"/>
  </g>
  <g id="axes_1">
   <g id="patch_2">
    <path d="M 46.965625 314.44 
L 332.396195 314.44 
L 332.396195 7.2 
L 46.965625 7.2 
z
" style="fill: #ffffff"/>
   </g>
   <g id="PolyCollection_1">
    <defs>
     <path id="m9ad818e739" d="M 59.939742 -51.521705 
L 59.939742 -51.521705 
L 62.534565 -51.521705 
L 65.129389 -51.521705 
L 67.724212 -51.521705 
L 70.319035 -51.521705 
L 72.913859 -51.521705 
L 75.508682 -51.569785 
L 78.103505 -51.581805 
L 80.698329 -51.617865 
L 83.293152 -51.605845 
L 85.887975 -51.677965 
L 88.482799 -51.581805 
L 91.077622 -51.653925 
L 93.672446 -51.653925 
L 96.267269 -51.617865 
L 98.862092 -51.665945 
L 101.456916 -51.726045 
L 104.051739 -51.677965 
L 106.646562 -51.702005 
L 109.241386 -51.821904 
L 111.836209 -51.870285 
L 114.431032 -51.810185 
L 117.025856 -51.869684 
L 119.620679 -51.858265 
L 122.215503 -51.953824 
L 124.810326 -51.978465 
L 127.405149 -51.989283 
L 129.999973 -52.074625 
L 132.594796 -52.073724 
L 135.189619 -52.157563 
L 137.784443 -52.254925 
L 140.379266 -52.134725 
L 142.974089 -52.218865 
L 145.568913 -52.242905 
L 148.163736 -52.360101 
L 150.75856 -52.242905 
L 153.353383 -52.363106 
L 155.948206 -52.543406 
L 158.54303 -52.422905 
L 161.137853 -52.435226 
L 163.732676 -52.519366 
L 166.3275 -52.747746 
L 168.922323 -52.615526 
L 171.517146 -52.687045 
L 174.11197 -52.806043 
L 176.706793 -52.771786 
L 179.301617 -53.000166 
L 181.89644 -53.505007 
L 184.491263 -53.000166 
L 187.086087 -52.771786 
L 189.68091 -53.132387 
L 192.275733 -53.156427 
L 194.870557 -53.312687 
L 197.46538 -53.288647 
L 200.060203 -53.456326 
L 202.655027 -53.444907 
L 205.24985 -53.529047 
L 207.844674 -53.954556 
L 210.439497 -54.033888 
L 213.03432 -53.877628 
L 215.629144 -53.769447 
L 218.223967 -54.301934 
L 220.81879 -53.841567 
L 223.413614 -53.937728 
L 226.008437 -54.021868 
L 228.60326 -54.164906 
L 231.198084 -54.238228 
L 233.792907 -54.226208 
L 236.387731 -54.947409 
L 238.982554 -54.574788 
L 241.577377 -54.610848 
L 244.172201 -55.247909 
L 246.767024 -54.959429 
L 249.361847 -54.959429 
L 251.956671 -55.175789 
L 254.551494 -56.458024 
L 257.146317 -55.664703 
L 259.741141 -56.786471 
L 262.335964 -55.271949 
L 264.930788 -55.65659 
L 267.525611 -55.57245 
L 270.120434 -55.68063 
L 272.715258 -56.798491 
L 275.310081 -57.495652 
L 277.904904 -56.05325 
L 280.499728 -56.293651 
L 283.094551 -57.279292 
L 285.689374 -56.798491 
L 288.284198 -57.417822 
L 290.879021 -57.086972 
L 293.473845 -57.123032 
L 296.068668 -57.026871 
L 298.663491 -57.123032 
L 301.258315 -57.940393 
L 303.853138 -57.147072 
L 306.447961 -57.086972 
L 309.042785 -57.243232 
L 311.637608 -57.940393 
L 314.232431 -57.4644 
L 316.827255 -58.117387 
L 319.422078 -57.639892 
L 319.422078 -108.772435 
L 319.422078 -108.772435 
L 316.827255 -107.931635 
L 314.232431 -104.758351 
L 311.637608 -93.447517 
L 309.042785 -90.94465 
L 306.447961 -91.115634 
L 303.853138 -90.454533 
L 301.258315 -87.826958 
L 298.663491 -102.222128 
L 296.068668 -86.728329 
L 293.473845 -87.197109 
L 290.879021 -86.728329 
L 288.284198 -86.704289 
L 285.689374 -84.624826 
L 283.094551 -93.134997 
L 280.499728 -83.963725 
L 277.904904 -81.992443 
L 275.310081 -80.886601 
L 272.715258 -80.982762 
L 270.120434 -88.735671 
L 267.525611 -79.97308 
L 264.930788 -78.903299 
L 262.335964 -76.212018 
L 259.741141 -76.343036 
L 257.146317 -78.284268 
L 254.551494 -74.558063 
L 251.956671 -75.417495 
L 249.361847 -74.071253 
L 246.767024 -74.047213 
L 244.172201 -72.652891 
L 241.577377 -72.141139 
L 238.982554 -71.55907 
L 236.387731 -70.200808 
L 233.792907 -69.683947 
L 231.198084 -70.345048 
L 228.60326 -69.804148 
L 226.008437 -69.058907 
L 223.413614 -67.989125 
L 220.81879 -67.231864 
L 218.223967 -65.657242 
L 215.629144 -67.00138 
L 213.03432 -66.450563 
L 210.439497 -65.104322 
L 207.844674 -64.311001 
L 205.24985 -63.5898 
L 202.655027 -63.289299 
L 200.060203 -63.45758 
L 197.46538 -63.465393 
L 194.870557 -62.282022 
L 192.275733 -61.882958 
L 189.68091 -61.257917 
L 187.086087 -60.692976 
L 184.491263 -61.089637 
L 181.89644 -60.031875 
L 179.301617 -60.429437 
L 176.706793 -59.959755 
L 174.11197 -58.793814 
L 171.517146 -58.421193 
L 168.922323 -58.361093 
L 166.3275 -57.736052 
L 163.732676 -57.603832 
L 161.137853 -59.394814 
L 158.54303 -58.529373 
L 155.948206 -56.834551 
L 153.353383 -56.08931 
L 150.75856 -56.22153 
L 148.163736 -55.74073 
L 145.568913 -55.66861 
L 142.974089 -55.356991 
L 140.379266 -55.166474 
L 137.784443 -55.007509 
L 135.189619 -54.682969 
L 132.594796 -54.346408 
L 129.999973 -54.142068 
L 127.405149 -54.045908 
L 124.810326 -54.009848 
L 122.215503 -53.601167 
L 119.620679 -53.432887 
L 117.025856 -53.312687 
L 114.431032 -53.084307 
L 111.836209 -53.024206 
L 109.241386 -52.892587 
L 106.646562 -52.711686 
L 104.051739 -52.615526 
L 101.456916 -52.543406 
L 98.862092 -52.315026 
L 96.267269 -52.158765 
L 93.672446 -52.122705 
L 91.077622 -52.074926 
L 88.482799 -51.954425 
L 85.887975 -51.930385 
L 83.293152 -51.822205 
L 80.698329 -51.786145 
L 78.103505 -51.702005 
L 75.508682 -51.689985 
L 72.913859 -51.653925 
L 70.319035 -51.641905 
L 67.724212 -51.593825 
L 65.129389 -51.557765 
L 62.534565 -51.557765 
L 59.939742 -51.521705 
z
" style="stroke: #1f77b4; stroke-opacity: 0.2"/>
    </defs>
    <g clip-path="url(#p9c063be5c8)">
     <use xlink:href="#m9ad818e739" x="0" y="351.99625" style="fill: #1f77b4; fill-opacity: 0.2; stroke: #1f77b4; stroke-opacity: 0.2"/>
    </g>
   </g>
   <g id="PolyCollection_2">
    <defs>
     <path id="m7182b7076f" d="M 59.939742 -51.521705 
L 59.939742 -51.521705 
L 62.534565 -51.521705 
L 65.129389 -51.521705 
L 67.724212 -51.557765 
L 70.319035 -51.641905 
L 72.913859 -51.641905 
L 75.508682 -51.750085 
L 78.103505 -51.738065 
L 80.698329 -51.918365 
L 83.293152 -51.918365 
L 85.887975 -52.038565 
L 88.482799 -52.170785 
L 91.077622 -52.218865 
L 93.672446 -52.266945 
L 96.267269 -52.507045 
L 98.862092 -52.579466 
L 101.456916 -52.759766 
L 104.051739 -53.000166 
L 106.646562 -53.348747 
L 109.241386 -53.360767 
L 111.836209 -53.263405 
L 114.431032 -53.649247 
L 117.025856 -53.901668 
L 119.620679 -54.093988 
L 122.215503 -54.370448 
L 124.810326 -54.344906 
L 127.405149 -55.247909 
L 129.999973 -54.815189 
L 132.594796 -56.05325 
L 135.189619 -55.95709 
L 137.784443 -56.485971 
L 140.379266 -56.06527 
L 142.974089 -56.606171 
L 145.568913 -56.522031 
L 148.163736 -56.858591 
L 150.75856 -57.724032 
L 153.353383 -57.339392 
L 155.948206 -57.555752 
L 158.54303 -58.663397 
L 161.137853 -59.478955 
L 163.732676 -58.793814 
L 166.3275 -59.226534 
L 168.922323 -59.635215 
L 171.517146 -59.887635 
L 174.11197 -60.488636 
L 176.706793 -60.957416 
L 179.301617 -61.390137 
L 181.89644 -61.774777 
L 184.491263 -62.724359 
L 187.086087 -60.248236 
L 189.68091 -63.5898 
L 192.275733 -65.644621 
L 194.870557 -64.467261 
L 197.46538 -65.945723 
L 200.060203 -65.272602 
L 202.655027 -68.408924 
L 205.24985 -69.215167 
L 207.844674 -66.811164 
L 210.439497 -68.614166 
L 213.03432 -68.542046 
L 215.629144 -69.143047 
L 218.223967 -69.587787 
L 220.81879 -69.864248 
L 223.413614 -70.561408 
L 226.008437 -70.537368 
L 228.60326 -71.186449 
L 231.198084 -71.71533 
L 233.792907 -72.304311 
L 236.387731 -72.989452 
L 238.982554 -73.734692 
L 241.577377 -74.167413 
L 244.172201 -75.321334 
L 246.767024 -78.590779 
L 249.361847 -77.689277 
L 251.956671 -78.121998 
L 254.551494 -80.418121 
L 257.146317 -81.331342 
L 259.741141 -87.76205 
L 262.335964 -83.386765 
L 264.930788 -84.276246 
L 267.525611 -86.390566 
L 270.120434 -85.634507 
L 272.715258 -87.518645 
L 275.310081 -86.343688 
L 277.904904 -87.794504 
L 280.499728 -88.435171 
L 283.094551 -92.158371 
L 285.689374 -95.392656 
L 288.284198 -97.288814 
L 290.879021 -95.88758 
L 293.473845 -97.221802 
L 296.068668 -97.130149 
L 298.663491 -95.34668 
L 301.258315 -97.478129 
L 303.853138 -98.844504 
L 306.447961 -111.56168 
L 309.042785 -104.974712 
L 311.637608 -107.462855 
L 314.232431 -116.489886 
L 316.827255 -105.130972 
L 319.422078 -108.502286 
L 319.422078 -330.830795 
L 319.422078 -330.830795 
L 316.827255 -308.581748 
L 314.232431 -319.447841 
L 311.637608 -313.906614 
L 309.042785 -324.592408 
L 306.447961 -310.26455 
L 303.853138 -295.847143 
L 301.258315 -292.292223 
L 298.663491 -287.642881 
L 296.068668 -287.935869 
L 293.473845 -285.743719 
L 290.879021 -277.377788 
L 288.284198 -261.739749 
L 285.689374 -253.950779 
L 283.094551 -248.164344 
L 280.499728 -246.71473 
L 277.904904 -240.999814 
L 275.310081 -227.218265 
L 272.715258 -219.874036 
L 270.120434 -218.191234 
L 267.525611 -208.527142 
L 264.930788 -215.667031 
L 262.335964 -205.587046 
L 259.741141 -202.048354 
L 257.146317 -195.785926 
L 254.551494 -199.41597 
L 251.956671 -189.283098 
L 249.361847 -187.852716 
L 246.767024 -178.857538 
L 244.172201 -173.837378 
L 241.577377 -169.618353 
L 238.982554 -160.326881 
L 236.387731 -160.014361 
L 233.792907 -157.730558 
L 231.198084 -151.60035 
L 228.60326 -159.08882 
L 226.008437 -147.285165 
L 223.413614 -135.998371 
L 220.81879 -133.762648 
L 218.223967 -131.803385 
L 215.629144 -131.076174 
L 213.03432 -132.145956 
L 210.439497 -125.601058 
L 207.844674 -119.963671 
L 205.24985 -118.629449 
L 202.655027 -115.035464 
L 200.060203 -115.612425 
L 197.46538 -109.530297 
L 194.870557 -108.075876 
L 192.275733 -106.357013 
L 189.68091 -102.991409 
L 187.086087 -102.474549 
L 184.491263 -99.986405 
L 181.89644 -97.594422 
L 179.301617 -94.721639 
L 176.706793 -91.596435 
L 174.11197 -91.151694 
L 171.517146 -90.033833 
L 168.922323 -86.584089 
L 166.3275 -84.540686 
L 163.732676 -82.112643 
L 161.137853 -81.800123 
L 158.54303 -80.982762 
L 155.948206 -79.925 
L 153.353383 -76.504404 
L 150.75856 -74.167413 
L 148.163736 -72.965411 
L 145.568913 -72.27997 
L 142.974089 -72.544711 
L 140.379266 -70.645549 
L 137.784443 -68.133365 
L 135.189619 -68.145385 
L 132.594796 -68.566086 
L 129.999973 -66.294303 
L 127.405149 -65.567393 
L 124.810326 -64.226861 
L 122.215503 -62.556078 
L 119.620679 -62.231538 
L 117.025856 -61.498317 
L 114.431032 -60.188135 
L 111.836209 -59.659255 
L 109.241386 -58.244799 
L 106.646562 -58.000493 
L 104.051739 -56.534051 
L 101.456916 -56.12537 
L 98.862092 -55.56043 
L 96.267269 -54.935389 
L 93.672446 -54.586808 
L 91.077622 -53.997828 
L 88.482799 -53.637227 
L 85.887975 -53.192487 
L 83.293152 -53.216527 
L 80.698329 -52.723706 
L 78.103505 -52.351086 
L 75.508682 -52.303006 
L 72.913859 -51.931287 
L 70.319035 -51.846245 
L 67.724212 -51.665945 
L 65.129389 -51.569785 
L 62.534565 -51.521705 
L 59.939742 -51.521705 
z
" style="stroke: #ff7f0e; stroke-opacity: 0.2"/>
    </defs>
    <g clip-path="url(#p9c063be5c8)">
     <use xlink:href="#m7182b7076f" x="0" y="351.99625" style="fill: #ff7f0e; fill-opacity: 0.2; stroke: #ff7f0e; stroke-opacity: 0.2"/>
    </g>
   </g>
   <g id="matplotlib.axis_1">
    <g id="xtick_1">
     <g id="line2d_1">
      <defs>
       <path id="mca353da66a" d="M 0 0 
L 0 3.5 
" style="stroke: #000000; stroke-width: 0.8"/>
      </defs>
      <g>
       <use xlink:href="#mca353da66a" x="59.680259" y="314.44" style="stroke: #000000; stroke-width: 0.8"/>
      </g>
     </g>
     <g id="text_1">
      <!-- 0 -->
      <g transform="translate(56.499009 329.038437) scale(0.1 -0.1)">
       <defs>
        <path id="DejaVuSans-30" d="M 2034 4250 
Q 1547 4250 1301 3770 
Q 1056 3291 1056 2328 
Q 1056 1369 1301 889 
Q 1547 409 2034 409 
Q 2525 409 2770 889 
Q 3016 1369 3016 2328 
Q 3016 3291 2770 3770 
Q 2525 4250 2034 4250 
z
M 2034 4750 
Q 2819 4750 3233 4129 
Q 3647 3509 3647 2328 
Q 3647 1150 3233 529 
Q 2819 -91 2034 -91 
Q 1250 -91 836 529 
Q 422 1150 422 2328 
Q 422 3509 836 4129 
Q 1250 4750 2034 4750 
z
" transform="scale(0.015625)"/>
       </defs>
       <use xlink:href="#DejaVuSans-30"/>
      </g>
     </g>
    </g>
    <g id="xtick_2">
     <g id="line2d_2">
      <g>
       <use xlink:href="#mca353da66a" x="111.576727" y="314.44" style="stroke: #000000; stroke-width: 0.8"/>
      </g>
     </g>
     <g id="text_2">
      <!-- 200 -->
      <g transform="translate(102.032977 329.038437) scale(0.1 -0.1)">
       <defs>
        <path id="DejaVuSans-32" d="M 1228 531 
L 3431 531 
L 3431 0 
L 469 0 
L 469 531 
Q 828 903 1448 1529 
Q 2069 2156 2228 2338 
Q 2531 2678 2651 2914 
Q 2772 3150 2772 3378 
Q 2772 3750 2511 3984 
Q 2250 4219 1831 4219 
Q 1534 4219 1204 4116 
Q 875 4013 500 3803 
L 500 4441 
Q 881 4594 1212 4672 
Q 1544 4750 1819 4750 
Q 2544 4750 2975 4387 
Q 3406 4025 3406 3419 
Q 3406 3131 3298 2873 
Q 3191 2616 2906 2266 
Q 2828 2175 2409 1742 
Q 1991 1309 1228 531 
z
" transform="scale(0.015625)"/>
       </defs>
       <use xlink:href="#DejaVuSans-32"/>
       <use xlink:href="#DejaVuSans-30" x="63.623047"/>
       <use xlink:href="#DejaVuSans-30" x="127.246094"/>
      </g>
     </g>
    </g>
    <g id="xtick_3">
     <g id="line2d_3">
      <g>
       <use xlink:href="#mca353da66a" x="163.473194" y="314.44" style="stroke: #000000; stroke-width: 0.8"/>
      </g>
     </g>
     <g id="text_3">
      <!-- 400 -->
      <g transform="translate(153.929444 329.038437) scale(0.1 -0.1)">
       <defs>
        <path id="DejaVuSans-34" d="M 2419 4116 
L 825 1625 
L 2419 1625 
L 2419 4116 
z
M 2253 4666 
L 3047 4666 
L 3047 1625 
L 3713 1625 
L 3713 1100 
L 3047 1100 
L 3047 0 
L 2419 0 
L 2419 1100 
L 313 1100 
L 313 1709 
L 2253 4666 
z
" transform="scale(0.015625)"/>
       </defs>
       <use xlink:href="#DejaVuSans-34"/>
       <use xlink:href="#DejaVuSans-30" x="63.623047"/>
       <use xlink:href="#DejaVuSans-30" x="127.246094"/>
      </g>
     </g>
    </g>
    <g id="xtick_4">
     <g id="line2d_4">
      <g>
       <use xlink:href="#mca353da66a" x="215.369661" y="314.44" style="stroke: #000000; stroke-width: 0.8"/>
      </g>
     </g>
     <g id="text_4">
      <!-- 600 -->
      <g transform="translate(205.825911 329.038437) scale(0.1 -0.1)">
       <defs>
        <path id="DejaVuSans-36" d="M 2113 2584 
Q 1688 2584 1439 2293 
Q 1191 2003 1191 1497 
Q 1191 994 1439 701 
Q 1688 409 2113 409 
Q 2538 409 2786 701 
Q 3034 994 3034 1497 
Q 3034 2003 2786 2293 
Q 2538 2584 2113 2584 
z
M 3366 4563 
L 3366 3988 
Q 3128 4100 2886 4159 
Q 2644 4219 2406 4219 
Q 1781 4219 1451 3797 
Q 1122 3375 1075 2522 
Q 1259 2794 1537 2939 
Q 1816 3084 2150 3084 
Q 2853 3084 3261 2657 
Q 3669 2231 3669 1497 
Q 3669 778 3244 343 
Q 2819 -91 2113 -91 
Q 1303 -91 875 529 
Q 447 1150 447 2328 
Q 447 3434 972 4092 
Q 1497 4750 2381 4750 
Q 2619 4750 2861 4703 
Q 3103 4656 3366 4563 
z
" transform="scale(0.015625)"/>
       </defs>
       <use xlink:href="#DejaVuSans-36"/>
       <use xlink:href="#DejaVuSans-30" x="63.623047"/>
       <use xlink:href="#DejaVuSans-30" x="127.246094"/>
      </g>
     </g>
    </g>
    <g id="xtick_5">
     <g id="line2d_5">
      <g>
       <use xlink:href="#mca353da66a" x="267.266129" y="314.44" style="stroke: #000000; stroke-width: 0.8"/>
      </g>
     </g>
     <g id="text_5">
      <!-- 800 -->
      <g transform="translate(257.722379 329.038437) scale(0.1 -0.1)">
       <defs>
        <path id="DejaVuSans-38" d="M 2034 2216 
Q 1584 2216 1326 1975 
Q 1069 1734 1069 1313 
Q 1069 891 1326 650 
Q 1584 409 2034 409 
Q 2484 409 2743 651 
Q 3003 894 3003 1313 
Q 3003 1734 2745 1975 
Q 2488 2216 2034 2216 
z
M 1403 2484 
Q 997 2584 770 2862 
Q 544 3141 544 3541 
Q 544 4100 942 4425 
Q 1341 4750 2034 4750 
Q 2731 4750 3128 4425 
Q 3525 4100 3525 3541 
Q 3525 3141 3298 2862 
Q 3072 2584 2669 2484 
Q 3125 2378 3379 2068 
Q 3634 1759 3634 1313 
Q 3634 634 3220 271 
Q 2806 -91 2034 -91 
Q 1263 -91 848 271 
Q 434 634 434 1313 
Q 434 1759 690 2068 
Q 947 2378 1403 2484 
z
M 1172 3481 
Q 1172 3119 1398 2916 
Q 1625 2713 2034 2713 
Q 2441 2713 2670 2916 
Q 2900 3119 2900 3481 
Q 2900 3844 2670 4047 
Q 2441 4250 2034 4250 
Q 1625 4250 1398 4047 
Q 1172 3844 1172 3481 
z
" transform="scale(0.015625)"/>
       </defs>
       <use xlink:href="#DejaVuSans-38"/>
       <use xlink:href="#DejaVuSans-30" x="63.623047"/>
       <use xlink:href="#DejaVuSans-30" x="127.246094"/>
      </g>
     </g>
    </g>
    <g id="xtick_6">
     <g id="line2d_6">
      <g>
       <use xlink:href="#mca353da66a" x="319.162596" y="314.44" style="stroke: #000000; stroke-width: 0.8"/>
      </g>
     </g>
     <g id="text_6">
      <!-- 1000 -->
      <g transform="translate(306.437596 329.038437) scale(0.1 -0.1)">
       <defs>
        <path id="DejaVuSans-31" d="M 794 531 
L 1825 531 
L 1825 4091 
L 703 3866 
L 703 4441 
L 1819 4666 
L 2450 4666 
L 2450 531 
L 3481 531 
L 3481 0 
L 794 0 
L 794 531 
z
" transform="scale(0.015625)"/>
       </defs>
       <use xlink:href="#DejaVuSans-31"/>
       <use xlink:href="#DejaVuSans-30" x="63.623047"/>
       <use xlink:href="#DejaVuSans-30" x="127.246094"/>
       <use xlink:href="#DejaVuSans-30" x="190.869141"/>
      </g>
     </g>
    </g>
    <g id="text_7">
     <!-- Vertices -->
     <g transform="translate(169.736379 342.716562) scale(0.1 -0.1)">
      <defs>
       <path id="DejaVuSans-56" d="M 1831 0 
L 50 4666 
L 709 4666 
L 2188 738 
L 3669 4666 
L 4325 4666 
L 2547 0 
L 1831 0 
z
" transform="scale(0.015625)"/>
       <path id="DejaVuSans-65" d="M 3597 1894 
L 3597 1613 
L 953 1613 
Q 991 1019 1311 708 
Q 1631 397 2203 397 
Q 2534 397 2845 478 
Q 3156 559 3463 722 
L 3463 178 
Q 3153 47 2828 -22 
Q 2503 -91 2169 -91 
Q 1331 -91 842 396 
Q 353 884 353 1716 
Q 353 2575 817 3079 
Q 1281 3584 2069 3584 
Q 2775 3584 3186 3129 
Q 3597 2675 3597 1894 
z
M 3022 2063 
Q 3016 2534 2758 2815 
Q 2500 3097 2075 3097 
Q 1594 3097 1305 2825 
Q 1016 2553 972 2059 
L 3022 2063 
z
" transform="scale(0.015625)"/>
       <path id="DejaVuSans-72" d="M 2631 2963 
Q 2534 3019 2420 3045 
Q 2306 3072 2169 3072 
Q 1681 3072 1420 2755 
Q 1159 2438 1159 1844 
L 1159 0 
L 581 0 
L 581 3500 
L 1159 3500 
L 1159 2956 
Q 1341 3275 1631 3429 
Q 1922 3584 2338 3584 
Q 2397 3584 2469 3576 
Q 2541 3569 2628 3553 
L 2631 2963 
z
" transform="scale(0.015625)"/>
       <path id="DejaVuSans-74" d="M 1172 4494 
L 1172 3500 
L 2356 3500 
L 2356 3053 
L 1172 3053 
L 1172 1153 
Q 1172 725 1289 603 
Q 1406 481 1766 481 
L 2356 481 
L 2356 0 
L 1766 0 
Q 1100 0 847 248 
Q 594 497 594 1153 
L 594 3053 
L 172 3053 
L 172 3500 
L 594 3500 
L 594 4494 
L 1172 4494 
z
" transform="scale(0.015625)"/>
       <path id="DejaVuSans-69" d="M 603 3500 
L 1178 3500 
L 1178 0 
L 603 0 
L 603 3500 
z
M 603 4863 
L 1178 4863 
L 1178 4134 
L 603 4134 
L 603 4863 
z
" transform="scale(0.015625)"/>
       <path id="DejaVuSans-63" d="M 3122 3366 
L 3122 2828 
Q 2878 2963 2633 3030 
Q 2388 3097 2138 3097 
Q 1578 3097 1268 2742 
Q 959 2388 959 1747 
Q 959 1106 1268 751 
Q 1578 397 2138 397 
Q 2388 397 2633 464 
Q 2878 531 3122 666 
L 3122 134 
Q 2881 22 2623 -34 
Q 2366 -91 2075 -91 
Q 1284 -91 818 406 
Q 353 903 353 1747 
Q 353 2603 823 3093 
Q 1294 3584 2113 3584 
Q 2378 3584 2631 3529 
Q 2884 3475 3122 3366 
z
" transform="scale(0.015625)"/>
       <path id="DejaVuSans-73" d="M 2834 3397 
L 2834 2853 
Q 2591 2978 2328 3040 
Q 2066 3103 1784 3103 
Q 1356 3103 1142 2972 
Q 928 2841 928 2578 
Q 928 2378 1081 2264 
Q 1234 2150 1697 2047 
L 1894 2003 
Q 2506 1872 2764 1633 
Q 3022 1394 3022 966 
Q 3022 478 2636 193 
Q 2250 -91 1575 -91 
Q 1294 -91 989 -36 
Q 684 19 347 128 
L 347 722 
Q 666 556 975 473 
Q 1284 391 1588 391 
Q 1994 391 2212 530 
Q 2431 669 2431 922 
Q 2431 1156 2273 1281 
Q 2116 1406 1581 1522 
L 1381 1569 
Q 847 1681 609 1914 
Q 372 2147 372 2553 
Q 372 3047 722 3315 
Q 1072 3584 1716 3584 
Q 2034 3584 2315 3537 
Q 2597 3491 2834 3397 
z
" transform="scale(0.015625)"/>
      </defs>
      <use xlink:href="#DejaVuSans-56"/>
      <use xlink:href="#DejaVuSans-65" x="60.658203"/>
      <use xlink:href="#DejaVuSans-72" x="122.181641"/>
      <use xlink:href="#DejaVuSans-74" x="163.294922"/>
      <use xlink:href="#DejaVuSans-69" x="202.503906"/>
      <use xlink:href="#DejaVuSans-63" x="230.287109"/>
      <use xlink:href="#DejaVuSans-65" x="285.267578"/>
      <use xlink:href="#DejaVuSans-73" x="346.791016"/>
     </g>
    </g>
   </g>
   <g id="matplotlib.axis_2">
    <g id="ytick_1">
     <g id="line2d_7">
      <defs>
       <path id="m34e87d046e" d="M 0 0 
L -3.5 0 
" style="stroke: #000000; stroke-width: 0.8"/>
      </defs>
      <g>
       <use xlink:href="#m34e87d046e" x="46.965625" y="300.474545" style="stroke: #000000; stroke-width: 0.8"/>
      </g>
     </g>
     <g id="text_8">
      <!-- 0 -->
      <g transform="translate(33.603125 304.273764) scale(0.1 -0.1)">
       <use xlink:href="#DejaVuSans-30"/>
      </g>
     </g>
    </g>
    <g id="ytick_2">
     <g id="line2d_8">
      <g>
       <use xlink:href="#m34e87d046e" x="46.965625" y="240.37447" style="stroke: #000000; stroke-width: 0.8"/>
      </g>
     </g>
     <g id="text_9">
      <!-- 200 -->
      <g transform="translate(20.878125 244.173689) scale(0.1 -0.1)">
       <use xlink:href="#DejaVuSans-32"/>
       <use xlink:href="#DejaVuSans-30" x="63.623047"/>
       <use xlink:href="#DejaVuSans-30" x="127.246094"/>
      </g>
     </g>
    </g>
    <g id="ytick_3">
     <g id="line2d_9">
      <g>
       <use xlink:href="#m34e87d046e" x="46.965625" y="180.274394" style="stroke: #000000; stroke-width: 0.8"/>
      </g>
     </g>
     <g id="text_10">
      <!-- 400 -->
      <g transform="translate(20.878125 184.073613) scale(0.1 -0.1)">
       <use xlink:href="#DejaVuSans-34"/>
       <use xlink:href="#DejaVuSans-30" x="63.623047"/>
       <use xlink:href="#DejaVuSans-30" x="127.246094"/>
      </g>
     </g>
    </g>
    <g id="ytick_4">
     <g id="line2d_10">
      <g>
       <use xlink:href="#m34e87d046e" x="46.965625" y="120.174319" style="stroke: #000000; stroke-width: 0.8"/>
      </g>
     </g>
     <g id="text_11">
      <!-- 600 -->
      <g transform="translate(20.878125 123.973538) scale(0.1 -0.1)">
       <use xlink:href="#DejaVuSans-36"/>
       <use xlink:href="#DejaVuSans-30" x="63.623047"/>
       <use xlink:href="#DejaVuSans-30" x="127.246094"/>
      </g>
     </g>
    </g>
    <g id="ytick_5">
     <g id="line2d_11">
      <g>
       <use xlink:href="#m34e87d046e" x="46.965625" y="60.074243" style="stroke: #000000; stroke-width: 0.8"/>
      </g>
     </g>
     <g id="text_12">
      <!-- 800 -->
      <g transform="translate(20.878125 63.873462) scale(0.1 -0.1)">
       <use xlink:href="#DejaVuSans-38"/>
       <use xlink:href="#DejaVuSans-30" x="63.623047"/>
       <use xlink:href="#DejaVuSans-30" x="127.246094"/>
      </g>
     </g>
    </g>
    <g id="text_13">
     <!-- Avg Time (ms) -->
     <g transform="translate(14.798437 196.868437) rotate(-90) scale(0.1 -0.1)">
      <defs>
       <path id="DejaVuSans-41" d="M 2188 4044 
L 1331 1722 
L 3047 1722 
L 2188 4044 
z
M 1831 4666 
L 2547 4666 
L 4325 0 
L 3669 0 
L 3244 1197 
L 1141 1197 
L 716 0 
L 50 0 
L 1831 4666 
z
" transform="scale(0.015625)"/>
       <path id="DejaVuSans-76" d="M 191 3500 
L 800 3500 
L 1894 563 
L 2988 3500 
L 3597 3500 
L 2284 0 
L 1503 0 
L 191 3500 
z
" transform="scale(0.015625)"/>
       <path id="DejaVuSans-67" d="M 2906 1791 
Q 2906 2416 2648 2759 
Q 2391 3103 1925 3103 
Q 1463 3103 1205 2759 
Q 947 2416 947 1791 
Q 947 1169 1205 825 
Q 1463 481 1925 481 
Q 2391 481 2648 825 
Q 2906 1169 2906 1791 
z
M 3481 434 
Q 3481 -459 3084 -895 
Q 2688 -1331 1869 -1331 
Q 1566 -1331 1297 -1286 
Q 1028 -1241 775 -1147 
L 775 -588 
Q 1028 -725 1275 -790 
Q 1522 -856 1778 -856 
Q 2344 -856 2625 -561 
Q 2906 -266 2906 331 
L 2906 616 
Q 2728 306 2450 153 
Q 2172 0 1784 0 
Q 1141 0 747 490 
Q 353 981 353 1791 
Q 353 2603 747 3093 
Q 1141 3584 1784 3584 
Q 2172 3584 2450 3431 
Q 2728 3278 2906 2969 
L 2906 3500 
L 3481 3500 
L 3481 434 
z
" transform="scale(0.015625)"/>
       <path id="DejaVuSans-20" transform="scale(0.015625)"/>
       <path id="DejaVuSans-54" d="M -19 4666 
L 3928 4666 
L 3928 4134 
L 2272 4134 
L 2272 0 
L 1638 0 
L 1638 4134 
L -19 4134 
L -19 4666 
z
" transform="scale(0.015625)"/>
       <path id="DejaVuSans-6d" d="M 3328 2828 
Q 3544 3216 3844 3400 
Q 4144 3584 4550 3584 
Q 5097 3584 5394 3201 
Q 5691 2819 5691 2113 
L 5691 0 
L 5113 0 
L 5113 2094 
Q 5113 2597 4934 2840 
Q 4756 3084 4391 3084 
Q 3944 3084 3684 2787 
Q 3425 2491 3425 1978 
L 3425 0 
L 2847 0 
L 2847 2094 
Q 2847 2600 2669 2842 
Q 2491 3084 2119 3084 
Q 1678 3084 1418 2786 
Q 1159 2488 1159 1978 
L 1159 0 
L 581 0 
L 581 3500 
L 1159 3500 
L 1159 2956 
Q 1356 3278 1631 3431 
Q 1906 3584 2284 3584 
Q 2666 3584 2933 3390 
Q 3200 3197 3328 2828 
z
" transform="scale(0.015625)"/>
       <path id="DejaVuSans-28" d="M 1984 4856 
Q 1566 4138 1362 3434 
Q 1159 2731 1159 2009 
Q 1159 1288 1364 580 
Q 1569 -128 1984 -844 
L 1484 -844 
Q 1016 -109 783 600 
Q 550 1309 550 2009 
Q 550 2706 781 3412 
Q 1013 4119 1484 4856 
L 1984 4856 
z
" transform="scale(0.015625)"/>
       <path id="DejaVuSans-29" d="M 513 4856 
L 1013 4856 
Q 1481 4119 1714 3412 
Q 1947 2706 1947 2009 
Q 1947 1309 1714 600 
Q 1481 -109 1013 -844 
L 513 -844 
Q 928 -128 1133 580 
Q 1338 1288 1338 2009 
Q 1338 2731 1133 3434 
Q 928 4138 513 4856 
z
" transform="scale(0.015625)"/>
      </defs>
      <use xlink:href="#DejaVuSans-41"/>
      <use xlink:href="#DejaVuSans-76" x="62.533203"/>
      <use xlink:href="#DejaVuSans-67" x="121.712891"/>
      <use xlink:href="#DejaVuSans-20" x="185.189453"/>
      <use xlink:href="#DejaVuSans-54" x="216.976562"/>
      <use xlink:href="#DejaVuSans-69" x="274.935547"/>
      <use xlink:href="#DejaVuSans-6d" x="302.71875"/>
      <use xlink:href="#DejaVuSans-65" x="400.130859"/>
      <use xlink:href="#DejaVuSans-20" x="461.654297"/>
      <use xlink:href="#DejaVuSans-28" x="493.441406"/>
      <use xlink:href="#DejaVuSans-6d" x="532.455078"/>
      <use xlink:href="#DejaVuSans-73" x="629.867188"/>
      <use xlink:href="#DejaVuSans-29" x="681.966797"/>
     </g>
    </g>
   </g>
   <g id="line2d_12">
    <path d="M 59.939742 300.474545 
L 62.534565 300.462525 
L 65.129389 300.462525 
L 67.724212 300.438485 
L 70.319035 300.426465 
L 72.913859 300.414445 
L 75.508682 300.366365 
L 78.103505 300.366365 
L 80.698329 300.294245 
L 83.293152 300.282225 
L 85.887975 300.210105 
L 88.482799 300.246165 
L 91.077622 300.150005 
L 93.672446 300.150005 
L 96.267269 300.137985 
L 98.862092 300.053845 
L 101.456916 299.933645 
L 104.051739 299.933645 
L 106.646562 299.861525 
L 109.241386 299.717285 
L 111.836209 299.645164 
L 114.431032 299.597084 
L 117.025856 299.488904 
L 119.620679 299.428804 
L 122.215503 299.308604 
L 124.810326 299.140324 
L 127.405149 299.104264 
L 129.999973 298.996084 
L 132.594796 298.923964 
L 135.189619 298.719623 
L 137.784443 298.563363 
L 140.379266 298.503263 
L 142.974089 298.334983 
L 145.568913 298.262863 
L 148.163736 298.154683 
L 150.75856 297.962362 
L 153.353383 297.794082 
L 155.948206 297.613782 
L 158.54303 297.000761 
L 161.137853 296.700261 
L 163.732676 297.181061 
L 166.3275 297.060861 
L 168.922323 296.868541 
L 171.517146 296.712281 
L 174.11197 296.51996 
L 176.706793 295.99108 
L 179.301617 295.426139 
L 181.89644 295.426139 
L 184.491263 295.161699 
L 187.086087 295.354019 
L 189.68091 295.257859 
L 192.275733 294.957359 
L 194.870557 294.608778 
L 197.46538 294.188078 
L 200.060203 294.055857 
L 202.655027 294.079897 
L 205.24985 293.863537 
L 207.844674 293.563037 
L 210.439497 293.214456 
L 213.03432 292.336995 
L 215.629144 292.409115 
L 218.223967 292.733656 
L 220.81879 292.132655 
L 223.413614 291.735994 
L 226.008437 290.882573 
L 228.60326 290.594093 
L 231.198084 289.704612 
L 233.792907 290.954693 
L 236.387731 290.317633 
L 238.982554 290.101272 
L 241.577377 289.368052 
L 244.172201 289.091591 
L 246.767024 288.586751 
L 249.361847 288.779071 
L 251.956671 287.625149 
L 254.551494 286.927988 
L 257.146317 286.158707 
L 259.741141 286.651528 
L 262.335964 287.180409 
L 264.930788 286.038507 
L 267.525611 285.930327 
L 270.120434 282.528663 
L 272.715258 284.776406 
L 275.310081 283.694604 
L 277.904904 283.598444 
L 280.499728 283.057544 
L 283.094551 279.018818 
L 285.689374 282.372403 
L 288.284198 281.987762 
L 290.879021 281.146361 
L 293.473845 280.917981 
L 296.068668 280.966061 
L 298.663491 276.698956 
L 301.258315 280.749701 
L 303.853138 279.475579 
L 306.447961 279.595779 
L 309.042785 279.583759 
L 311.637608 278.057217 
L 314.232431 274.631513 
L 316.827255 273.874252 
L 319.422078 273.441531 
" clip-path="url(#p9c063be5c8)" style="fill: none; stroke: #1f77b4; stroke-width: 1.5; stroke-linecap: square"/>
   </g>
   <g id="line2d_13">
    <path d="M 59.939742 300.474545 
L 62.534565 300.474545 
L 65.129389 300.450505 
L 67.724212 300.390405 
L 70.319035 300.246165 
L 72.913859 300.210105 
L 75.508682 299.969705 
L 78.103505 299.945665 
L 80.698329 299.681224 
L 83.293152 299.464864 
L 85.887975 299.380724 
L 88.482799 299.140324 
L 91.077622 298.887903 
L 93.672446 298.659523 
L 96.267269 298.322963 
L 98.862092 297.950342 
L 101.456916 297.553682 
L 104.051739 297.253181 
L 106.646562 296.17138 
L 109.241386 296.26754 
L 111.836209 295.534319 
L 114.431032 295.257859 
L 117.025856 294.512618 
L 119.620679 294.079897 
L 122.215503 293.575057 
L 124.810326 293.106276 
L 127.405149 291.760035 
L 129.999973 291.591754 
L 132.594796 290.305613 
L 135.189619 290.594093 
L 137.784443 289.632492 
L 140.379266 289.055531 
L 142.974089 288.05787 
L 145.568913 287.601109 
L 148.163736 287.144349 
L 150.75856 286.507288 
L 153.353383 285.076906 
L 155.948206 283.983085 
L 158.54303 283.009464 
L 161.137853 281.903622 
L 163.732676 281.543022 
L 166.3275 280.11264 
L 168.922323 279.343359 
L 171.517146 277.396116 
L 174.11197 276.807136 
L 176.706793 275.941695 
L 179.301617 274.607473 
L 181.89644 273.080931 
L 184.491263 271.193789 
L 187.086087 269.631187 
L 189.68091 268.705646 
L 192.275733 267.707984 
L 194.870557 265.868922 
L 197.46538 264.25824 
L 200.060203 263.008158 
L 202.655027 261.830197 
L 205.24985 259.606494 
L 207.844674 258.909333 
L 210.439497 255.195149 
L 213.03432 251.652249 
L 215.629144 252.087975 
L 218.223967 251.300664 
L 220.81879 250.182802 
L 223.413614 249.113021 
L 226.008437 243.571794 
L 228.60326 239.857609 
L 231.198084 240.68699 
L 233.792907 237.597846 
L 236.387731 236.744425 
L 238.982554 236.624225 
L 241.577377 233.054281 
L 244.172201 230.782498 
L 246.767024 224.18351 
L 249.361847 221.791527 
L 251.956671 218.377842 
L 254.551494 215.685359 
L 257.146317 215.577179 
L 259.741141 212.331775 
L 262.335964 208.93011 
L 264.930788 206.009247 
L 267.525611 205.264006 
L 270.120434 200.40792 
L 272.715258 198.821278 
L 275.310081 195.215273 
L 277.904904 191.573209 
L 280.499728 188.496085 
L 283.094551 182.954858 
L 285.689374 180.634995 
L 288.284198 177.02899 
L 290.879021 172.858045 
L 293.473845 164.227674 
L 296.068668 165.946536 
L 298.663491 165.597956 
L 301.258315 159.143208 
L 303.853138 154.671762 
L 306.447961 150.272437 
L 309.042785 147.688134 
L 311.637608 142.832047 
L 314.232431 139.610683 
L 316.827255 145.13989 
L 319.422078 132.326554 
" clip-path="url(#p9c063be5c8)" style="fill: none; stroke: #ff7f0e; stroke-width: 1.5; stroke-linecap: square"/>
   </g>
   <g id="line2d_14"/>
   <g id="line2d_15"/>
   <g id="patch_3">
    <path d="M 46.965625 314.44 
L 46.965625 7.2 
" style="fill: none; stroke: #000000; stroke-width: 0.8; stroke-linejoin: miter; stroke-linecap: square"/>
   </g>
   <g id="patch_4">
    <path d="M 46.965625 314.44 
L 332.396195 314.44 
" style="fill: none; stroke: #000000; stroke-width: 0.8; stroke-linejoin: miter; stroke-linecap: square"/>
   </g>
  </g>
  <g id="legend_1">
   <g id="text_14">
    <!-- Algorithm -->
    <g transform="translate(376.454439 164.079375) scale(0.1 -0.1)">
     <defs>
      <path id="DejaVuSans-6c" d="M 603 4863 
L 1178 4863 
L 1178 0 
L 603 0 
L 603 4863 
z
" transform="scale(0.015625)"/>
      <path id="DejaVuSans-6f" d="M 1959 3097 
Q 1497 3097 1228 2736 
Q 959 2375 959 1747 
Q 959 1119 1226 758 
Q 1494 397 1959 397 
Q 2419 397 2687 759 
Q 2956 1122 2956 1747 
Q 2956 2369 2687 2733 
Q 2419 3097 1959 3097 
z
M 1959 3584 
Q 2709 3584 3137 3096 
Q 3566 2609 3566 1747 
Q 3566 888 3137 398 
Q 2709 -91 1959 -91 
Q 1206 -91 779 398 
Q 353 888 353 1747 
Q 353 2609 779 3096 
Q 1206 3584 1959 3584 
z
" transform="scale(0.015625)"/>
      <path id="DejaVuSans-68" d="M 3513 2113 
L 3513 0 
L 2938 0 
L 2938 2094 
Q 2938 2591 2744 2837 
Q 2550 3084 2163 3084 
Q 1697 3084 1428 2787 
Q 1159 2491 1159 1978 
L 1159 0 
L 581 0 
L 581 4863 
L 1159 4863 
L 1159 2956 
Q 1366 3272 1645 3428 
Q 1925 3584 2291 3584 
Q 2894 3584 3203 3211 
Q 3513 2838 3513 2113 
z
" transform="scale(0.015625)"/>
     </defs>
     <use xlink:href="#DejaVuSans-41"/>
     <use xlink:href="#DejaVuSans-6c" x="68.408203"/>
     <use xlink:href="#DejaVuSans-67" x="96.191406"/>
     <use xlink:href="#DejaVuSans-6f" x="159.667969"/>
     <use xlink:href="#DejaVuSans-72" x="220.849609"/>
     <use xlink:href="#DejaVuSans-69" x="261.962891"/>
     <use xlink:href="#DejaVuSans-74" x="289.746094"/>
     <use xlink:href="#DejaVuSans-68" x="328.955078"/>
     <use xlink:href="#DejaVuSans-6d" x="392.333984"/>
    </g>
   </g>
   <g id="line2d_16">
    <path d="M 338.51772 175.2575 
L 348.51772 175.2575 
L 358.51772 175.2575 
" style="fill: none; stroke: #1f77b4; stroke-width: 1.5; stroke-linecap: square"/>
   </g>
   <g id="text_15">
    <!-- Kruskal's Algorithm -->
    <g transform="translate(366.51772 178.7575) scale(0.1 -0.1)">
     <defs>
      <path id="DejaVuSans-4b" d="M 628 4666 
L 1259 4666 
L 1259 2694 
L 3353 4666 
L 4166 4666 
L 1850 2491 
L 4331 0 
L 3500 0 
L 1259 2247 
L 1259 0 
L 628 0 
L 628 4666 
z
" transform="scale(0.015625)"/>
      <path id="DejaVuSans-75" d="M 544 1381 
L 544 3500 
L 1119 3500 
L 1119 1403 
Q 1119 906 1312 657 
Q 1506 409 1894 409 
Q 2359 409 2629 706 
Q 2900 1003 2900 1516 
L 2900 3500 
L 3475 3500 
L 3475 0 
L 2900 0 
L 2900 538 
Q 2691 219 2414 64 
Q 2138 -91 1772 -91 
Q 1169 -91 856 284 
Q 544 659 544 1381 
z
M 1991 3584 
L 1991 3584 
z
" transform="scale(0.015625)"/>
      <path id="DejaVuSans-6b" d="M 581 4863 
L 1159 4863 
L 1159 1991 
L 2875 3500 
L 3609 3500 
L 1753 1863 
L 3688 0 
L 2938 0 
L 1159 1709 
L 1159 0 
L 581 0 
L 581 4863 
z
" transform="scale(0.015625)"/>
      <path id="DejaVuSans-61" d="M 2194 1759 
Q 1497 1759 1228 1600 
Q 959 1441 959 1056 
Q 959 750 1161 570 
Q 1363 391 1709 391 
Q 2188 391 2477 730 
Q 2766 1069 2766 1631 
L 2766 1759 
L 2194 1759 
z
M 3341 1997 
L 3341 0 
L 2766 0 
L 2766 531 
Q 2569 213 2275 61 
Q 1981 -91 1556 -91 
Q 1019 -91 701 211 
Q 384 513 384 1019 
Q 384 1609 779 1909 
Q 1175 2209 1959 2209 
L 2766 2209 
L 2766 2266 
Q 2766 2663 2505 2880 
Q 2244 3097 1772 3097 
Q 1472 3097 1187 3025 
Q 903 2953 641 2809 
L 641 3341 
Q 956 3463 1253 3523 
Q 1550 3584 1831 3584 
Q 2591 3584 2966 3190 
Q 3341 2797 3341 1997 
z
" transform="scale(0.015625)"/>
      <path id="DejaVuSans-27" d="M 1147 4666 
L 1147 2931 
L 616 2931 
L 616 4666 
L 1147 4666 
z
" transform="scale(0.015625)"/>
     </defs>
     <use xlink:href="#DejaVuSans-4b"/>
     <use xlink:href="#DejaVuSans-72" x="65.576172"/>
     <use xlink:href="#DejaVuSans-75" x="106.689453"/>
     <use xlink:href="#DejaVuSans-73" x="170.068359"/>
     <use xlink:href="#DejaVuSans-6b" x="222.167969"/>
     <use xlink:href="#DejaVuSans-61" x="278.328125"/>
     <use xlink:href="#DejaVuSans-6c" x="339.607422"/>
     <use xlink:href="#DejaVuSans-27" x="367.390625"/>
     <use xlink:href="#DejaVuSans-73" x="394.880859"/>
     <use xlink:href="#DejaVuSans-20" x="446.980469"/>
     <use xlink:href="#DejaVuSans-41" x="478.767578"/>
     <use xlink:href="#DejaVuSans-6c" x="547.175781"/>
     <use xlink:href="#DejaVuSans-67" x="574.958984"/>
     <use xlink:href="#DejaVuSans-6f" x="638.435547"/>
     <use xlink:href="#DejaVuSans-72" x="699.617188"/>
     <use xlink:href="#DejaVuSans-69" x="740.730469"/>
     <use xlink:href="#DejaVuSans-74" x="768.513672"/>
     <use xlink:href="#DejaVuSans-68" x="807.722656"/>
     <use xlink:href="#DejaVuSans-6d" x="871.101562"/>
    </g>
   </g>
   <g id="line2d_17">
    <path d="M 338.51772 189.935625 
L 348.51772 189.935625 
L 358.51772 189.935625 
" style="fill: none; stroke: #ff7f0e; stroke-width: 1.5; stroke-linecap: square"/>
   </g>
   <g id="text_16">
    <!-- Prim's Algorithm -->
    <g transform="translate(366.51772 193.435625) scale(0.1 -0.1)">
     <defs>
      <path id="DejaVuSans-50" d="M 1259 4147 
L 1259 2394 
L 2053 2394 
Q 2494 2394 2734 2622 
Q 2975 2850 2975 3272 
Q 2975 3691 2734 3919 
Q 2494 4147 2053 4147 
L 1259 4147 
z
M 628 4666 
L 2053 4666 
Q 2838 4666 3239 4311 
Q 3641 3956 3641 3272 
Q 3641 2581 3239 2228 
Q 2838 1875 2053 1875 
L 1259 1875 
L 1259 0 
L 628 0 
L 628 4666 
z
" transform="scale(0.015625)"/>
     </defs>
     <use xlink:href="#DejaVuSans-50"/>
     <use xlink:href="#DejaVuSans-72" x="58.552734"/>
     <use xlink:href="#DejaVuSans-69" x="99.666016"/>
     <use xlink:href="#DejaVuSans-6d" x="127.449219"/>
     <use xlink:href="#DejaVuSans-27" x="224.861328"/>
     <use xlink:href="#DejaVuSans-73" x="252.351562"/>
     <use xlink:href="#DejaVuSans-20" x="304.451172"/>
     <use xlink:href="#DejaVuSans-41" x="336.238281"/>
     <use xlink:href="#DejaVuSans-6c" x="404.646484"/>
     <use xlink:href="#DejaVuSans-67" x="432.429688"/>
     <use xlink:href="#DejaVuSans-6f" x="495.90625"/>
     <use xlink:href="#DejaVuSans-72" x="557.087891"/>
     <use xlink:href="#DejaVuSans-69" x="598.201172"/>
     <use xlink:href="#DejaVuSans-74" x="625.984375"/>
     <use xlink:href="#DejaVuSans-68" x="665.193359"/>
     <use xlink:href="#DejaVuSans-6d" x="728.572266"/>
    </g>
   </g>
  </g>
 </g>
 <defs>
  <clipPath id="p9c063be5c8">
   <rect x="46.965625" y="7.2" width="285.43057" height="307.24"/>
  </clipPath>
 </defs>
</svg>
